<svg version="1" xmlns="http://www.w3.org/2000/svg" width="666.667" height="666.667" viewBox="0 0 500.000000 500.000000"><path d="M233.9 36.4c-.2.2-3.5.6-7.3 1s-7.9.9-9 1.1c-1.2.2-3.4.6-5.1.9-5.3.7-20.8 4.6-27.5 6.8-3.6 1.2-6.7 2.3-7 2.3-.3.1-1.4.5-2.5 1-1.1.4-4.1 1.6-6.7 2.6-5.4 2.1-22.1 10.6-28.9 14.6-27.3 16.5-51.1 39.4-69.2 66.8-10.5 16-24 45.9-27.3 60.7-.2 1-.6 2.6-.8 3.5-.7 2.6-3.4 15.3-4 18.8-1.4 7.6-2.1 19.3-2.1 34.5.1 18.7.8 27.5 3.1 38.7.9 4.3 1.7 8.5 1.9 9.3 3.1 15.2 16.5 50.4 19.7 51.8.5.2.8 1 .8 1.8 0 2 13.8 23.1 21.2 32.3 8.3 10.4 26.6 28.3 36.3 35.6 10 7.5 14.4 10.5 15.4 10.5.4 0 1.6.8 2.7 1.7 1 1 4.4 3.1 7.4 4.7s5.8 3.4 6.1 3.9c.3.5.8.8 1 .6.2-.1 3.6 1.3 7.4 3 3.9 1.8 9 4.1 11.5 5 2.5 1 5.4 2.1 6.5 2.6 1.1.4 2.7.9 3.6 1.1.9.2 2.9.9 4.5 1.5 1.6.7 3.6 1.3 4.5 1.5.8.2 4.2 1.1 7.5 1.9 10.8 2.9 22.7 4.9 32.2 5.4 1.5.1 2.1.5 1.6 1.3-.4.6-.3.8.4.5.5-.4 9.7-.9 20.4-1.1 24.4-.4 31-1.2 47.8-5.3 3.6-.9 7.2-1.7 8-1.8.8-.1 2.8-.7 4.4-1.4 1.6-.6 3.6-1.3 4.5-1.4.9-.1 2.2-.6 2.8-1 .7-.5 2.1-1 3.1-1.2 3.2-.6 21.2-8.5 29.2-12.8 12.4-6.7 28.8-17.8 35.2-23.9 1-1 2-1.8 2.3-1.8.2 0 1.7-1.2 3.3-2.8 1.6-1.5 3.8-3.4 4.8-4.3 5.1-4.2 19.8-21 25.5-28.9 1.8-2.5 3.6-4.7 4.1-4.8.4-.2.8-.8.8-1.2 0-.5 1.3-2.8 2.9-5.2 3.7-5.7 7.4-12 10.7-18.8 1.5-3 3.1-5.8 3.6-6.1.5-.3.9-1 .8-1.5 0-.5 1-3.6 2.4-6.9 2.2-5.4 3.6-9.1 4.1-10.5.1-.3.4-1.2.8-2 .9-2.4 4.7-15 5.1-17.4.2-1.1.9-4 1.5-6.4.7-2.4 1.4-6 1.7-8 .2-2 .6-4.8.9-6.2 2.3-11.7 2.7-46.9.6-61.9-1.4-10.2-7.5-34.9-11.1-44.6-3.4-9.4-14.3-31.5-18.8-38.4-2.3-3.4-4.2-6.5-4.2-6.7 0-.5-7.7-11.1-9.5-13-.5-.6-2.6-3.1-4.5-5.5-5.5-7-21.8-23-30.4-29.8-12.6-10-28-19.7-40.6-25.7-14.9-7.1-38.5-15.1-49.5-16.8-2.1-.4-4-.8-4.4-1-.3-.2-2.8-.6-5.6-1-2.7-.3-6.1-.8-7.5-1.2-2.7-.6-42.5-1.5-43.1-1z"/></svg>